<?xml version="1.0" encoding="utf-8"?>
<!DOCTYPE svg PUBLIC "-//W3C//DTD SVG 1.1//EN" "http://www.w3.org/Graphics/SVG/1.1/DTD/svg11.dtd">
<svg version="1.1" xmlns="http://www.w3.org/2000/svg" xmlns:xlink="http://www.w3.org/1999/xlink" x="0px" y="0px"
	 viewBox="0 0 1035.79 367.48">
<g id="_x32_017">
	<path fill="#16284A" d="M-3091.11,498.06c0-33.86,20.65-46.63,62.21-65.79c15.16-6.99,53.75-16.99,53.75-35.57
		c0-17.42-21.26-23.23-30.91-23.23l0.29-40.37c47.86,0,76.34,34.84,76.34,61.7c0,38.47-13.48,43.81-42.15,60.48
		c-30,17.44-73.82,32-73.82,45.69l-0.06,43.54h-45.66V498.06z"/>
	<path fill="#16284A" d="M-3012.88,373.6l-0.29-40.79c-37.23,0-77.79,29.8-77.79,65.18l41.37,3.92
		C-3049.6,386.28-3028.74,373.6-3012.88,373.6z"/>
	<rect x="-3038.72" y="501.08" fill="#16284A" width="109.58" height="43.43"/>
	<path fill="#16284A" d="M-2778.33,355.92c-13.87-15.13-31.87-22.24-57.13-23.11v38.97c11.42,1.75,26.46,16.85,27.71,30.1
		c0.62,6.66,0.47,38.11,0.47,38.11s0.15,31.46-0.47,38.11c-1.25,13.26-16.29,28.36-27.71,30.1v38.97
		c25.26-0.87,43.26-7.98,57.13-23.1c13.37-14.59,13.74-42.78,13.74-42.78V440v-41.29C-2764.59,398.71-2764.96,370.5-2778.33,355.92"
		/>
	<path fill="#16284A" d="M-2899.18,355.92c-13.37,14.58-13.74,42.79-13.74,42.79V440v41.29c0,0,0.37,28.19,13.74,42.78
		c13.87,15.13,31.87,22.23,57.12,23.1v-38.97c-11.41-1.75-26.46-16.84-27.71-30.1c-0.62-6.65-0.47-38.11-0.47-38.11
		s-0.15-31.45,0.47-38.11c1.25-13.25,16.29-28.36,27.71-30.1v-38.97C-2867.31,333.68-2885.31,340.79-2899.18,355.92"/>
	<polygon fill="#16284A" points="-2748.33,362.28 -2719.45,336.16 -2719.45,388.7 -2748.33,414.67 	"/>
	<rect x="-2713.56" y="335.51" fill="#16284A" width="47.31" height="208.56"/>
	<polygon fill="#16284A" points="-2499.63,381.68 -2594.46,544.5 -2646.5,544.5 -2551.68,381.68 	"/>
	<rect x="-2645.78" y="336.16" fill="#16284A" width="146.29" height="38.27"/>
	<polygon fill="#16284A" points="-1349.21,75.31 -1311.63,41.32 -1311.63,109.69 -1349.21,143.5 	"/>
	<rect x="-1303.97" y="40.48" fill="#16284A" width="61.56" height="271.41"/>
	<polygon fill="#16284A" points="-1025.56,100.56 -1148.96,312.45 -1216.7,312.45 -1093.3,100.56 	"/>
	<rect x="-1215.75" y="41.32" fill="#16284A" width="190.38" height="49.81"/>
	<g>
		<polygon fill="#8EBE3E" points="622.34,42.09 673.55,5.53 663.79,89.87 612.6,126.21 		"/>

			<rect x="663.49" y="8.86" transform="matrix(0.9934 0.115 -0.115 0.9934 25.058 -79.5287)" fill="#8EBE3E" width="76.45" height="337.05"/>
		<polygon fill="#8EBE3E" points="1017.98,119.47 835.5,363.22 751.94,353.55 934.42,109.79 		"/>

			<rect x="787.49" y="32.62" transform="matrix(0.9934 0.115 -0.115 0.9934 13.3163 -103.7342)" fill="#8EBE3E" width="236.42" height="61.85"/>
	</g>
</g>
<g id="meister">
	<polygon fill="#222429" points="-3066.07,315.72 -3089.32,315.72 -3089.32,219.55 -3066.07,258.36 	"/>
	<polygon fill="#222429" points="-3032.4,308.65 -3089.04,213.49 -3066.92,213.49 -3032.4,271.49 	"/>
	<polygon fill="#222429" points="-3028.89,271.41 -2994.36,213.42 -2972.24,213.42 -3028.89,308.58 	"/>
	<polygon fill="#222429" points="-2996.07,258.36 -2972.82,219.55 -2972.82,315.71 -2996.07,315.71 	"/>
	<rect x="-2960.46" y="213.2" fill="#222429" width="23.26" height="102.52"/>
	<rect x="-2933.21" y="213.42" fill="#222429" width="47.94" height="18.83"/>
	<rect x="-2933.06" y="252.15" fill="#222429" width="44.02" height="18.83"/>
	<rect x="-2932.99" y="296.74" fill="#222429" width="47.94" height="18.84"/>
	<rect x="-2873.16" y="213.2" fill="#222429" width="23.26" height="102.52"/>
	<path fill="#222429" d="M-2799.65,297.39l-0.14,18.33c-26.71,0-40.38-13.1-40.38-32.46l21.47-2.07
		C-2818.69,292.28-2809.57,297.39-2799.65,297.39z"/>
	<path fill="#222429" d="M-2806.99,271.53c-22.08-5.25-30.32-12.92-30.32-29.44c0-16.98,13.4-28.46,37.53-28.46l0.15,17.05
		c-13.6,0-15.2,6.38-15.2,11.42c0,6.35,10.1,9.19,25.26,11.84c21.13,3.7,31.74,13.51,31.74,30.25c0,19.43-12.4,31.82-38.1,31.82
		v-18.05c10.86,0,15.62-4.5,15.62-12.34C-2780.31,280.57-2784.91,276.78-2806.99,271.53z"/>
	<path fill="#222429" d="M-2796.29,213.42c28.21,0,37.03,20.2,37.03,30.75l-21.4,2.07c0-7.78-7.41-15.55-15.56-15.55
		L-2796.29,213.42z"/>
	<rect x="-2754.75" y="213.63" fill="#222429" width="76.19" height="18.83"/>
	<rect x="-2727.71" y="236.24" fill="#222429" width="23.25" height="79.26"/>
	<rect x="-2671.86" y="213.2" fill="#222429" width="23.26" height="102.52"/>
	<rect x="-2644.62" y="213.42" fill="#222429" width="47.94" height="18.83"/>
	<rect x="-2644.47" y="252.15" fill="#222429" width="44.01" height="18.83"/>
	<rect x="-2644.39" y="296.74" fill="#222429" width="47.94" height="18.84"/>
	<rect x="-2586.17" y="213.34" fill="#222429" width="23.22" height="102.37"/>
	<path fill="#222429" d="M-2516.29,269.76c12.67,12.67,6.07,35.77,16.1,45.81h-24.29c0,0-3.91-4.4-6.11-17.38
		c-1.97-11.6-1.1-20.38-16.93-20.38h-11.72v-18.52h15.95c7.09,0,13.53-6.12,13.53-14.39c0-7.56-4.35-13.68-15.34-13.68h-14.14
		v-18.16h16.38c21.84,0,36.41,10.15,36.41,31.2C-2506.45,259.11-2510.69,264.16-2516.29,269.76"/>
	<g>
		<g>
			<polygon fill="#222429" points="-1925.18,315.71 -1949.21,315.71 -1949.21,216.36 -1925.18,256.45 			"/>
			<polygon fill="#222429" points="-1890.4,308.41 -1948.92,210.09 -1926.07,210.09 -1890.4,270.01 			"/>
			<polygon fill="#222429" points="-1886.78,269.94 -1851.1,210.02 -1828.26,210.02 -1886.78,308.34 			"/>
			<polygon fill="#222429" points="-1852.87,256.45 -1828.85,216.36 -1828.85,315.7 -1852.87,315.7 			"/>
			<rect x="-1816.08" y="209.8" fill="#222429" width="24.03" height="105.91"/>
			<rect x="-1787.93" y="210.02" fill="#222429" width="49.53" height="19.46"/>
			<rect x="-1787.78" y="250.04" fill="#222429" width="45.48" height="19.46"/>
			<rect x="-1787.7" y="296.1" fill="#222429" width="49.53" height="19.46"/>
			<rect x="-1725.9" y="209.8" fill="#222429" width="24.03" height="105.91"/>
			<path fill="#222429" d="M-1649.95,296.77l-0.15,18.94c-27.59,0-41.72-13.54-41.72-33.53l22.19-2.14
				C-1669.62,291.5-1660.2,296.77-1649.95,296.77z"/>
			<path fill="#222429" d="M-1657.53,270.06c-22.81-5.42-31.32-13.34-31.32-30.41c0-17.54,13.85-29.41,38.77-29.41l0.15,17.61
				c-14.05,0-15.7,6.59-15.7,11.8c0,6.56,10.43,9.49,26.09,12.24c21.83,3.83,32.79,13.96,32.79,31.25
				c0,20.07-12.82,32.87-39.36,32.87v-18.65c11.22,0,16.14-4.65,16.14-12.75C-1629.97,279.4-1634.72,275.48-1657.53,270.06z"/>
			<path fill="#222429" d="M-1646.48,210.02c29.15,0,38.25,20.87,38.25,31.77l-22.11,2.13c0-8.04-7.66-16.07-16.07-16.07
				L-1646.48,210.02z"/>
			<rect x="-1603.56" y="210.24" fill="#222429" width="78.71" height="19.46"/>
			<rect x="-1575.63" y="233.6" fill="#222429" width="24.02" height="81.89"/>
			<rect x="-1517.93" y="209.8" fill="#222429" width="24.03" height="105.91"/>
			<rect x="-1489.78" y="210.02" fill="#222429" width="49.53" height="19.46"/>
			<rect x="-1489.63" y="250.04" fill="#222429" width="45.47" height="19.46"/>
			<rect x="-1489.56" y="296.1" fill="#222429" width="49.53" height="19.46"/>
			<rect x="-1429.4" y="209.95" fill="#222429" width="23.99" height="105.76"/>
			<path fill="#222429" d="M-1357.21,268.23c13.09,13.09,6.27,36.96,16.63,47.32h-25.1c0,0-4.04-4.55-6.31-17.95
				c-2.03-11.99-1.14-21.06-17.49-21.06h-12.11v-19.13h16.48c7.33,0,13.98-6.32,13.98-14.87c0-7.81-4.49-14.13-15.85-14.13h-14.61
				v-18.76h16.92c22.56,0,37.61,10.49,37.61,32.23C-1347.05,257.23-1351.42,262.45-1357.21,268.23"/>
		</g>
		<g>
			<polygon fill="#222222" points="-1925.18,315.71 -1949.21,315.71 -1949.21,216.36 -1925.18,256.45 			"/>
			<polygon fill="#222222" points="-1890.4,308.41 -1948.92,210.09 -1926.07,210.09 -1890.4,270.01 			"/>
			<polygon fill="#222222" points="-1886.78,269.94 -1851.1,210.02 -1828.26,210.02 -1886.78,308.34 			"/>
			<polygon fill="#222222" points="-1852.87,256.45 -1828.85,216.36 -1828.85,315.7 -1852.87,315.7 			"/>
			<rect x="-1816.08" y="209.8" fill="#222222" width="24.03" height="105.91"/>
			<rect x="-1787.93" y="210.02" fill="#222222" width="49.53" height="19.46"/>
			<rect x="-1787.78" y="250.04" fill="#222222" width="45.48" height="19.46"/>
			<rect x="-1787.7" y="296.1" fill="#222222" width="49.53" height="19.46"/>
			<rect x="-1725.9" y="209.8" fill="#222222" width="24.03" height="105.91"/>
			<path fill="#222222" d="M-1649.95,296.77l-0.15,18.94c-27.59,0-41.72-13.54-41.72-33.53l22.19-2.14
				C-1669.62,291.5-1660.2,296.77-1649.95,296.77z"/>
			<path fill="#222222" d="M-1657.53,270.06c-22.81-5.42-31.32-13.34-31.32-30.41c0-17.54,13.85-29.41,38.77-29.41l0.15,17.61
				c-14.05,0-15.7,6.59-15.7,11.8c0,6.56,10.43,9.49,26.09,12.24c21.83,3.83,32.79,13.96,32.79,31.25
				c0,20.07-12.82,32.87-39.36,32.87v-18.65c11.22,0,16.14-4.65,16.14-12.75C-1629.97,279.4-1634.72,275.48-1657.53,270.06z"/>
			<path fill="#222222" d="M-1646.48,210.02c29.15,0,38.25,20.87,38.25,31.77l-22.11,2.13c0-8.04-7.66-16.07-16.07-16.07
				L-1646.48,210.02z"/>
			<rect x="-1603.56" y="210.24" fill="#222222" width="78.71" height="19.46"/>
			<rect x="-1575.63" y="233.6" fill="#222222" width="24.02" height="81.89"/>
			<rect x="-1517.93" y="209.8" fill="#222222" width="24.03" height="105.91"/>
			<rect x="-1489.78" y="210.02" fill="#222222" width="49.53" height="19.46"/>
			<rect x="-1489.63" y="250.04" fill="#222222" width="45.47" height="19.46"/>
			<rect x="-1489.56" y="296.1" fill="#222222" width="49.53" height="19.46"/>
			<rect x="-1429.4" y="209.95" fill="#222222" width="23.99" height="105.76"/>
			<path fill="#222222" d="M-1357.21,268.23c13.09,13.09,6.27,36.96,16.63,47.32h-25.1c0,0-4.04-4.55-6.31-17.95
				c-2.03-11.99-1.14-21.06-17.49-21.06h-12.11v-19.13h16.48c7.33,0,13.98-6.32,13.98-14.87c0-7.81-4.49-14.13-15.85-14.13h-14.61
				v-18.76h16.92c22.56,0,37.61,10.49,37.61,32.23C-1347.05,257.23-1351.42,262.45-1357.21,268.23"/>
		</g>
	</g>
	<polygon fill="#FFFFFF" points="30.82,315.71 6.79,315.71 6.79,216.36 30.82,256.45 	"/>
	<polygon fill="#FFFFFF" points="65.6,308.41 7.08,210.09 29.93,210.09 65.6,270.01 	"/>
	<polygon fill="#FFFFFF" points="69.22,269.94 104.9,210.02 127.74,210.02 69.22,308.34 	"/>
	<polygon fill="#FFFFFF" points="103.13,256.45 127.15,216.36 127.15,315.7 103.13,315.7 	"/>
	<rect x="139.92" y="209.8" fill="#FFFFFF" width="24.03" height="105.91"/>
	<rect x="168.07" y="210.02" fill="#FFFFFF" width="49.53" height="19.46"/>
	<rect x="168.22" y="250.04" fill="#FFFFFF" width="45.48" height="19.46"/>
	<rect x="168.3" y="296.1" fill="#FFFFFF" width="49.53" height="19.46"/>
	<rect x="230.1" y="209.8" fill="#FFFFFF" width="24.03" height="105.91"/>
	<path fill="#FFFFFF" d="M306.05,296.77l-0.15,18.94c-27.59,0-41.72-13.54-41.72-33.53l22.19-2.14
		C286.38,291.5,295.8,296.77,306.05,296.77z"/>
	<path fill="#FFFFFF" d="M298.47,270.06c-22.81-5.42-31.32-13.34-31.32-30.41c0-17.54,13.85-29.41,38.77-29.41l0.15,17.61
		c-14.05,0-15.7,6.59-15.7,11.8c0,6.56,10.43,9.49,26.09,12.24c21.83,3.83,32.79,13.96,32.79,31.25c0,20.07-12.82,32.87-39.36,32.87
		v-18.65c11.22,0,16.14-4.65,16.14-12.75C326.03,279.4,321.28,275.48,298.47,270.06z"/>
	<path fill="#FFFFFF" d="M309.52,210.02c29.15,0,38.25,20.87,38.25,31.77l-22.11,2.13c0-8.04-7.66-16.07-16.07-16.07L309.52,210.02z
		"/>
	<rect x="352.44" y="210.24" fill="#FFFFFF" width="78.71" height="19.46"/>
	<rect x="380.37" y="233.6" fill="#FFFFFF" width="24.02" height="81.89"/>
	<rect x="438.07" y="209.8" fill="#FFFFFF" width="24.03" height="105.91"/>
	<rect x="466.22" y="210.02" fill="#FFFFFF" width="49.53" height="19.46"/>
	<rect x="466.37" y="250.04" fill="#FFFFFF" width="45.47" height="19.46"/>
	<rect x="466.44" y="296.1" fill="#FFFFFF" width="49.53" height="19.46"/>
	<rect x="526.6" y="209.95" fill="#FFFFFF" width="23.99" height="105.76"/>
	<path fill="#FFFFFF" d="M598.79,268.23c13.09,13.09,6.27,36.96,16.63,47.32h-25.1c0,0-4.04-4.55-6.31-17.95
		c-2.03-11.99-1.14-21.06-17.49-21.06h-12.11v-19.13h16.48c7.33,0,13.98-6.32,13.98-14.87c0-7.81-4.49-14.13-15.85-14.13h-14.61
		v-18.76h16.92c22.56,0,37.61,10.49,37.61,32.23C608.95,257.23,604.58,262.45,598.79,268.23"/>
</g>
<g id="noor">
	<polygon fill="#222429" points="-3054.12,195.5 -3089.33,195.5 -3089.33,49.93 -3054.12,108.68 	"/>
	<polygon fill="#222429" points="-2996.89,195.39 -3088.89,40.75 -3055.42,40.75 -2963.31,195.5 	"/>
	<polygon fill="#222429" points="-2998.3,40.65 -2963.09,40.65 -2963.09,186.21 -2998.3,127.47 	"/>
	<path fill="#222429" d="M-2881.02,68.83c-9,1.08-16.81,5.83-23.43,14.25c-7.56,9.65-11.34,21.31-11.34,34.99
		c0,13.61,3.78,25.23,11.34,34.88c6.62,8.5,14.44,13.29,23.43,14.36v28.08c-19.07-0.72-35.45-8.28-49.13-22.68
		c-14.47-15.12-21.71-33.4-21.71-54.85c0-21.45,7.24-39.77,21.71-54.96c13.68-14.33,30.06-21.85,49.13-22.57V68.83z"/>
	<path fill="#222429" d="M-2875.41,167.53c10-0.5,18.57-5.36,25.7-14.58c7.56-9.65,11.34-21.27,11.34-34.88
		c0-13.68-3.78-25.34-11.34-34.99c-7.13-9.14-15.7-13.97-25.7-14.47v-28.4c19.36,0.65,35.99,8.2,49.89,22.68
		c14.47,15.19,21.7,33.51,21.7,54.96c0,21.45-7.23,39.74-21.7,54.85c-13.9,14.54-30.53,22.14-49.89,22.79V167.53z"/>
	<path fill="#222429" d="M-2722.18,68.83c-9,1.08-16.81,5.83-23.43,14.25c-7.56,9.65-11.34,21.31-11.34,34.99
		c0,13.61,3.78,25.23,11.34,34.88c6.63,8.5,14.44,13.29,23.43,14.36v28.08c-19.07-0.72-35.46-8.28-49.13-22.68
		c-14.48-15.12-21.71-33.4-21.71-54.85c0-21.45,7.23-39.77,21.71-54.96c13.67-14.33,30.05-21.85,49.13-22.57V68.83z"/>
	<path fill="#222429" d="M-2716.56,167.53c10-0.5,18.57-5.36,25.7-14.58c7.56-9.65,11.34-21.27,11.34-34.88
		c0-13.68-3.78-25.34-11.34-34.99c-7.12-9.14-15.7-13.97-25.7-14.47v-28.4c19.37,0.65,35.99,8.2,49.89,22.68
		c14.47,15.19,21.71,33.51,21.71,54.96c0,21.45-7.24,39.74-21.71,54.85c-13.89,14.54-30.52,22.14-49.89,22.79V167.53z"/>
	<rect x="-2634.17" y="40.32" fill="#222429" width="35.21" height="155.18"/>
	<path fill="#222429" d="M-2528.23,125.85c19.21,19.21,9.2,54.23,24.4,69.44h-36.82c0,0-5.92-6.67-9.26-26.34
		c-2.98-17.59-1.67-30.9-25.67-30.9h-17.77v-28.08h24.18c10.75,0,20.51-9.28,20.51-21.81c0-11.46-6.59-20.73-23.26-20.73h-21.44
		V39.89h24.83c33.11,0,55.19,15.39,55.19,47.3C-2513.33,109.7-2519.75,117.36-2528.23,125.85"/>
	<polygon fill="#222429" points="-1914.01,195.5 -1949.21,195.5 -1949.21,49.93 -1914.01,108.68 	"/>
	<polygon fill="#222429" points="-1856.78,195.39 -1948.78,40.75 -1915.31,40.75 -1823.2,195.5 	"/>
	<polygon fill="#222429" points="-1858.18,40.65 -1822.98,40.65 -1822.98,186.21 -1858.18,127.47 	"/>
	<path fill="#222429" d="M-1740.91,68.83c-9,1.08-16.81,5.83-23.43,14.25c-7.56,9.65-11.34,21.31-11.34,34.99
		c0,13.61,3.78,25.23,11.34,34.88c6.62,8.5,14.44,13.29,23.43,14.36v28.08c-19.07-0.72-35.45-8.28-49.13-22.68
		c-14.47-15.12-21.71-33.4-21.71-54.85c0-21.45,7.24-39.77,21.71-54.96c13.68-14.33,30.06-21.85,49.13-22.57V68.83z"/>
	<path fill="#222429" d="M-1735.29,167.53c10-0.5,18.57-5.36,25.7-14.58c7.56-9.65,11.34-21.27,11.34-34.88
		c0-13.68-3.78-25.34-11.34-34.99c-7.13-9.14-15.7-13.97-25.7-14.47v-28.4c19.36,0.65,35.99,8.2,49.89,22.68
		c14.47,15.19,21.7,33.51,21.7,54.96c0,21.45-7.23,39.74-21.7,54.85c-13.9,14.54-30.53,22.14-49.89,22.79V167.53z"/>
	<path fill="#222429" d="M-1582.07,68.83c-9,1.08-16.81,5.83-23.43,14.25c-7.56,9.65-11.34,21.31-11.34,34.99
		c0,13.61,3.78,25.23,11.34,34.88c6.63,8.5,14.44,13.29,23.43,14.36v28.08c-19.07-0.72-35.46-8.28-49.13-22.68
		c-14.48-15.12-21.71-33.4-21.71-54.85c0-21.45,7.23-39.77,21.71-54.96c13.67-14.33,30.05-21.85,49.13-22.57V68.83z"/>
	<path fill="#222429" d="M-1576.45,167.53c10-0.5,18.57-5.36,25.7-14.58c7.56-9.65,11.34-21.27,11.34-34.88
		c0-13.68-3.78-25.34-11.34-34.99c-7.12-9.14-15.7-13.97-25.7-14.47v-28.4c19.37,0.65,35.99,8.2,49.89,22.68
		c14.47,15.19,21.71,33.51,21.71,54.96c0,21.45-7.24,39.74-21.71,54.85c-13.89,14.54-30.52,22.14-49.89,22.79V167.53z"/>
	<rect x="-1494.05" y="40.32" fill="#222429" width="35.21" height="155.18"/>
	<path fill="#222429" d="M-1388.12,125.85c19.21,19.21,9.2,54.23,24.4,69.44h-36.82c0,0-5.92-6.67-9.26-26.34
		c-2.98-17.59-1.67-30.9-25.67-30.9h-17.77v-28.08h24.18c10.75,0,20.51-9.28,20.51-21.81c0-11.46-6.59-20.73-23.26-20.73h-21.44
		V39.89h24.83c33.11,0,55.19,15.39,55.19,47.3C-1373.22,109.7-1379.63,117.36-1388.12,125.85"/>
	<polygon fill="#FFFFFF" points="41.99,195.5 6.79,195.5 6.79,49.93 41.99,108.68 	"/>
	<polygon fill="#FFFFFF" points="99.22,195.39 7.22,40.75 40.69,40.75 132.8,195.5 	"/>
	<polygon fill="#FFFFFF" points="97.82,40.65 133.02,40.65 133.02,186.21 97.82,127.47 	"/>
	<path fill="#FFFFFF" d="M215.09,68.83c-9,1.08-16.81,5.83-23.43,14.25c-7.56,9.65-11.34,21.31-11.34,34.99
		c0,13.61,3.78,25.23,11.34,34.88c6.62,8.5,14.44,13.29,23.43,14.36v28.08c-19.07-0.72-35.45-8.28-49.13-22.68
		c-14.47-15.12-21.71-33.4-21.71-54.85c0-21.45,7.24-39.77,21.71-54.96c13.68-14.33,30.06-21.85,49.13-22.57V68.83z"/>
	<path fill="#FFFFFF" d="M220.71,167.53c10-0.5,18.57-5.36,25.7-14.58c7.56-9.65,11.34-21.27,11.34-34.88
		c0-13.68-3.78-25.34-11.34-34.99c-7.13-9.14-15.7-13.97-25.7-14.47v-28.4c19.36,0.65,35.99,8.2,49.89,22.68
		c14.47,15.19,21.7,33.51,21.7,54.96c0,21.45-7.23,39.74-21.7,54.85c-13.9,14.54-30.53,22.14-49.89,22.79V167.53z"/>
	<path fill="#FFFFFF" d="M373.93,68.83c-9,1.08-16.81,5.83-23.43,14.25c-7.56,9.65-11.34,21.31-11.34,34.99
		c0,13.61,3.78,25.23,11.34,34.88c6.63,8.5,14.44,13.29,23.43,14.36v28.08c-19.07-0.72-35.46-8.28-49.13-22.68
		c-14.48-15.12-21.71-33.4-21.71-54.85c0-21.45,7.23-39.77,21.71-54.96c13.67-14.33,30.05-21.85,49.13-22.57V68.83z"/>
	<path fill="#FFFFFF" d="M379.55,167.53c10-0.5,18.57-5.36,25.7-14.58c7.56-9.65,11.34-21.27,11.34-34.88
		c0-13.68-3.78-25.34-11.34-34.99c-7.12-9.14-15.7-13.97-25.7-14.47v-28.4c19.37,0.65,35.99,8.2,49.89,22.68
		c14.47,15.19,21.71,33.51,21.71,54.96c0,21.45-7.24,39.74-21.71,54.85c-13.89,14.54-30.52,22.14-49.89,22.79V167.53z"/>
	<rect x="461.95" y="40.32" fill="#FFFFFF" width="35.21" height="155.18"/>
	<path fill="#FFFFFF" d="M567.88,125.85c19.21,19.21,9.2,54.23,24.4,69.44h-36.82c0,0-5.92-6.67-9.26-26.34
		c-2.98-17.59-1.67-30.9-25.67-30.9h-17.77v-28.08h24.18c10.75,0,20.51-9.28,20.51-21.81c0-11.46-6.59-20.73-23.26-20.73h-21.44
		V39.89h24.83c33.11,0,55.19,15.39,55.19,47.3C582.78,109.7,576.37,117.36,567.88,125.85"/>
</g>
</svg>
